<?xml version="1.0" standalone="no"?><!DOCTYPE svg PUBLIC "-//W3C//DTD SVG 1.1//EN" "http://www.w3.org/Graphics/SVG/1.1/DTD/svg11.dtd"><svg t="1647860942074" class="icon" viewBox="0 0 1024 1024" version="1.1" xmlns="http://www.w3.org/2000/svg" p-id="5624" xmlns:xlink="http://www.w3.org/1999/xlink" width="200" height="200"><defs><style type="text/css">@font-face { font-family: feedback-iconfont; src: url("//at.alicdn.com/t/font_1031158_u69w8yhxdu.woff2?t=1630033759944") format("woff2"), url("//at.alicdn.com/t/font_1031158_u69w8yhxdu.woff?t=1630033759944") format("woff"), url("//at.alicdn.com/t/font_1031158_u69w8yhxdu.ttf?t=1630033759944") format("truetype"); }
</style></defs><path d="M511.585 529.405c-18.69 0-36.84-3.687-53.941-10.927-16.475-6.935-31.293-16.914-44.03-29.634-12.719-12.72-22.699-27.538-29.685-44.047-7.459-17.625 0.779-37.955 18.404-45.399 17.575-7.442 37.956 0.811 45.399 18.404 3.484 8.255 8.49 15.663 14.868 22.056 6.376 6.36 13.785 11.368 22.006 14.818 17.118 7.24 36.874 7.24 53.958 0 8.238-3.45 15.612-8.458 22.006-14.818 6.36-6.393 11.367-13.8 14.818-22.023 7.442-17.626 27.807-25.878 45.4-18.437 17.624 7.444 25.879 27.74 18.47 45.365-6.969 16.51-16.982 31.327-29.702 44.08-12.721 12.722-27.539 22.7-44.047 29.67-17.083 7.205-35.25 10.892-53.924 10.892z" fill="#1296db" p-id="5625"></path><path d="M891.05 882.823c-40.019-127.808-128.382-225.576-237.076-271.854 80.616-48.443 134.743-136.537 134.743-237.417 0-153.045-124.121-277.13-277.132-277.13-153.095 0-277.132 124.085-277.132 277.13 0 100.88 54.11 188.973 134.744 237.417-108.695 46.277-197.057 144.113-237.078 271.854-5.716 18.268 4.432 37.687 22.7 43.368 18.284 5.751 37.686-4.397 43.403-22.664 47.396-151.218 173.326-252.843 313.363-252.843 140.055 0 266.003 101.625 313.365 252.843 4.633 14.816 18.3 24.29 33.05 24.29 3.416 0 6.9-0.541 10.352-1.626 18.268-5.682 28.417-25.1 22.699-43.368z m-587.313-509.27c0-114.614 93.235-207.85 207.848-207.85s207.849 93.236 207.849 207.85S626.199 581.4 511.585 581.4s-207.848-93.234-207.848-207.849z" fill="#1296db" p-id="5626"></path></svg>